<?xml version="1.0" encoding="utf-8"?>
<!-- Generator: Adobe Illustrator 15.0.0, SVG Export Plug-In . SVG Version: 6.00 Build 0)  -->
<!DOCTYPE svg PUBLIC "-//W3C//DTD SVG 1.1//EN" "http://www.w3.org/Graphics/SVG/1.1/DTD/svg11.dtd">
<svg version="1.1" id="Laag_1" xmlns="http://www.w3.org/2000/svg" xmlns:xlink="http://www.w3.org/1999/xlink" x="0px" y="0px"
	 width="100px" height="100px" viewBox="0 0 100 100" enable-background="new 0 0 100 100" xml:space="preserve">
<g>
	<path fill="#EB1414" d="M52.479,67.366c-3.963,5.35-7.949,9.089-11.96,11.218c-4.012,2.131-7.826,3.069-11.44,2.823
		c-3.617-0.246-7.034-1.561-10.251-3.938c-3.22-2.377-5.994-5.349-8.32-8.914c-2.329-3.566-4.211-7.601-5.646-12.109
		C3.423,51.94,2.655,47.36,2.557,42.703c-0.1-4.655,0.52-9.186,1.857-13.595c1.337-4.406,3.589-8.343,6.76-11.812
		c1.583,0.594,2.475,1.388,2.674,2.377c0.197,1.091,0.297,2.229,0.297,3.417c0,1.685-0.174,3.294-0.52,4.829
		c-0.348,1.537-0.72,3.097-1.114,4.68c-0.397,1.585-0.769,3.22-1.114,4.903c-0.349,1.686-0.52,3.417-0.52,5.2
		c0,1.289,0.148,2.897,0.445,4.829c0.297,1.932,0.718,3.988,1.263,6.166c0.543,2.18,1.263,4.335,2.154,6.464
		c0.892,2.131,1.955,4.062,3.194,5.794c1.237,1.734,2.6,3.171,4.086,4.309c1.486,1.14,3.169,1.709,5.051,1.709
		c1.683,0,3.689-0.521,6.018-1.561c2.326-1.04,4.555-2.352,6.686-3.937c2.128-1.584,3.912-3.366,5.349-5.349
		c1.435-1.98,2.154-3.961,2.154-5.943l0.891-19.315c0-0.297,0.198-0.594,0.595-0.892c0.395-0.297,0.817-0.568,1.263-0.817
		c0.446-0.246,0.915-0.469,1.412-0.668c0.494-0.198,0.84-0.297,1.04-0.297c1.386,0,2.326,0.892,2.823,2.674
		c0.494,1.783,0.891,4.086,1.188,6.909c0.297,2.823,0.643,5.82,1.04,8.988c0.395,3.172,1.114,6.166,2.154,8.989
		s2.6,5.126,4.68,6.909c1.98,1.782,4.852,2.674,8.617,2.674c3.664-0.098,6.586-0.865,8.767-2.303
		c2.177-1.435,3.763-3.343,4.754-5.72c0.989-2.378,1.46-5.026,1.412-7.949c-0.052-2.921-0.446-5.843-1.189-8.766
		c-0.742-2.921-1.733-5.72-2.971-8.395c-1.24-2.674-2.601-5-4.086-6.983c-0.2-0.792-0.2-1.36,0-1.708
		c0.197-0.346,0.469-0.594,0.816-0.743c0.347-0.149,0.767-0.246,1.264-0.297c0.494-0.049,0.892-0.074,1.188-0.074
		c1.583,0.397,3.292,1.708,5.126,3.937c1.831,2.229,3.44,4.88,4.828,7.949c1.386,3.071,2.452,6.488,3.194,10.251
		c0.743,3.765,0.94,7.48,0.595,11.143c-0.349,3.666-1.412,7.083-3.194,10.252c-1.783,3.171-4.509,5.745-8.172,7.726
		c-4.359,0.297-7.926,0.472-10.697,0.521c-2.774,0.051-5.077-0.049-6.909-0.298c-1.834-0.246-3.294-0.668-4.383-1.263
		c-1.091-0.594-2.131-1.36-3.12-2.303c-0.991-0.94-2.057-2.055-3.194-3.343C55.87,70.687,54.358,69.149,52.479,67.366z"/>
</g>
</svg>
